<?xml version="1.0" standalone="no"?>
<!DOCTYPE svg PUBLIC "-//W3C//DTD SVG 20010904//EN"
 "http://www.w3.org/TR/2001/REC-SVG-20010904/DTD/svg10.dtd">
<svg version="1.0" xmlns="http://www.w3.org/2000/svg"
 width="450.000000pt" height="254.000000pt" viewBox="0 0 450.000000 254.000000"
 preserveAspectRatio="xMidYMid meet">
<metadata>
Created by potrace 1.10, written by Peter Selinger 2001-2011
</metadata>
<g transform="translate(0.000000,254.000000) scale(0.100000,-0.100000)"
fill="#000000" stroke="none">
<path d="M72 2523 c6 -7 14 -10 19 -7 15 9 10 20 -10 20 -15 0 -17 -3 -9 -13z"/>
<path d="M112 2511 c-9 -24 -8 -29 3 -24 8 2 14 8 13 11 -3 26 7 31 60 35 l57
3 -62 2 c-59 2 -61 1 -71 -27z"/>
<path d="M250 2481 c0 -33 3 -62 8 -64 4 -3 7 24 7 59 0 35 -3 64 -7 64 -5 0
-8 -27 -8 -59z"/>
<path d="M358 2533 c23 -2 40 -8 37 -14 -4 -5 -1 -9 4 -9 6 0 11 7 11 15 0 11
-11 15 -47 13 l-48 -1 43 -4z"/>
<path d="M460 2470 l0 -70 434 0 c279 0 437 4 441 10 4 7 -140 10 -424 10
l-431 0 0 60 c0 33 -4 60 -10 60 -6 0 -10 -30 -10 -70z"/>
<path d="M612 2533 c48 -2 129 -2 180 0 51 1 12 3 -87 3 -99 0 -141 -2 -93 -3z"/>
<path d="M953 2533 c37 -2 96 -2 130 0 34 2 4 3 -68 3 -71 0 -99 -1 -62 -3z"/>
<path d="M1168 2533 c12 -2 32 -2 45 0 12 2 2 4 -23 4 -25 0 -35 -2 -22 -4z"/>
<path d="M1247 2523 c4 -11 8 -12 11 -5 5 16 1982 18 1982 2 0 -5 7 -10 15
-10 8 0 15 4 15 10 0 6 129 11 353 13 193 1 -263 3 -1015 5 -1283 2 -1367 1
-1361 -15z"/>
<path d="M4003 2533 c26 -4 27 -7 27 -59 l0 -54 -470 0 c-307 0 -470 -3 -470
-10 0 -7 165 -10 475 -10 l475 0 0 70 0 70 -32 -1 c-31 -2 -31 -2 -5 -6z"/>
<path d="M4221 2530 c10 -6 16 -25 18 -56 2 -62 11 -71 11 -11 0 57 -8 77 -29
77 -14 -1 -14 -2 0 -10z"/>
<path d="M4298 2533 c12 -2 30 -2 40 0 9 3 -1 5 -23 4 -22 0 -30 -2 -17 -4z"/>
<path d="M4361 2507 c-1 -48 17 -87 30 -66 13 20 11 29 -6 29 -8 0 -12 6 -9
13 2 7 0 24 -5 38 -9 22 -10 21 -10 -14z"/>
<path d="M4073 2465 c0 -33 2 -45 4 -27 2 18 2 45 0 60 -2 15 -4 0 -4 -33z"/>
<path d="M2220 2501 c0 -6 -10 -16 -22 -21 -16 -6 -18 -9 -7 -9 19 -1 45 26
35 36 -3 3 -6 1 -6 -6z"/>
<path d="M4430 2500 c0 -5 5 -10 11 -10 5 0 8 -4 4 -9 -3 -5 0 -13 6 -17 8 -4
9 -3 5 4 -10 17 5 15 25 -4 17 -16 18 -15 6 10 -7 14 -18 24 -24 21 -7 -2 -13
0 -13 5 0 6 -4 10 -10 10 -5 0 -10 -4 -10 -10z"/>
<path d="M20 2487 c0 -8 -6 -18 -12 -20 -7 -3 -3 -6 9 -6 28 -1 37 13 18 29
-12 10 -15 10 -15 -3z"/>
<path d="M2273 2465 c-10 -10 -9 -15 0 -24 10 -7 13 -4 15 15 2 28 1 28 -15 9z"/>
<path d="M100 2461 c0 -13 28 -33 33 -23 3 4 -3 13 -14 20 -10 7 -19 8 -19 3z"/>
<path d="M40 2439 c-42 -19 -43 -19 -10 -13 19 3 41 6 48 7 6 0 12 6 12 14 0
7 -1 13 -2 12 -2 -1 -23 -10 -48 -20z"/>
<path d="M150 2415 c0 -9 -6 -12 -17 -9 -15 5 -15 4 -3 -4 10 -8 18 -8 27 0
15 12 17 28 3 28 -5 0 -10 -7 -10 -15z"/>
<path d="M2176 2417 c-15 -11 -15 -17 -5 -42 14 -34 16 -40 18 -57 1 -9 4 -8
11 2 5 8 18 15 29 15 12 0 21 5 22 10 0 6 -13 9 -30 7 -25 -3 -33 1 -40 20 -6
16 -5 27 4 37 17 18 54 5 65 -22 7 -17 9 -18 9 -5 1 17 -34 48 -54 48 -6 0
-19 -6 -29 -13z"/>
<path d="M1550 2410 c0 -6 57 -10 150 -10 93 0 150 4 150 10 0 6 -57 10 -150
10 -93 0 -150 -4 -150 -10z"/>
<path d="M2600 2411 c0 -13 287 -14 295 -1 4 7 -44 10 -144 10 -84 0 -151 -4
-151 -9z"/>
<path d="M215 2374 c-20 -21 -32 -29 -37 -21 -4 6 -10 9 -13 6 -3 -4 1 -12 9
-18 12 -10 21 -6 50 23 20 19 32 37 28 39 -4 2 -20 -11 -37 -29z"/>
<path d="M4232 2389 c-16 -25 -10 -36 7 -15 11 13 16 11 37 -12 13 -15 23 -22
23 -17 0 9 -44 65 -51 65 -2 0 -9 -9 -16 -21z"/>
<path d="M366 2387 c-10 -7 -43 -38 -73 -69 -31 -32 -58 -56 -62 -54 -3 2 -15
-2 -26 -10 -19 -14 -19 -14 1 -14 10 1 57 37 103 80 46 44 82 80 80 79 -2 0
-12 -6 -23 -12z"/>
<path d="M2285 2390 c-3 -5 -2 -10 3 -10 16 0 2 -37 -23 -60 -15 -14 -36 -22
-59 -22 -20 0 -33 -4 -30 -9 11 -19 65 -9 90 17 24 23 27 24 39 8 12 -18 45
-14 45 5 0 6 -7 8 -16 4 -22 -8 -35 16 -28 50 5 26 -8 38 -21 17z"/>
<path d="M4370 2397 c9 -8 90 -15 90 -8 0 4 -21 8 -47 10 -26 1 -45 0 -43 -2z"/>
<path d="M422 2367 c10 -23 9 -30 -5 -45 -12 -11 -17 -12 -17 -4 0 8 -5 10
-12 6 -6 -4 -17 1 -25 11 -12 17 -13 17 -13 2 0 -10 11 -23 25 -29 21 -9 28
-8 45 7 24 22 25 35 5 61 -14 18 -14 17 -3 -9z"/>
<path d="M4120 2379 c3 -2 32 -29 65 -59 l59 -55 -49 55 c-28 30 -57 57 -65
59 -8 2 -13 2 -10 0z"/>
<path d="M268 2348 c-2 -17 -10 -24 -30 -26 -28 -3 -36 -16 -18 -27 25 -15 78
51 57 71 -3 3 -7 -5 -9 -18z"/>
<path d="M450 2361 c0 -6 83 -10 195 -11 128 0 195 3 195 10 0 6 -67 10 -195
10 -112 0 -195 -4 -195 -9z"/>
<path d="M900 2360 c0 -6 115 -10 325 -10 210 0 325 4 325 10 0 6 -115 10
-325 10 -210 0 -325 -4 -325 -10z"/>
<path d="M2870 2360 c0 -6 123 -10 350 -10 227 0 350 4 350 10 0 6 -123 10
-350 10 -227 0 -350 -4 -350 -10z"/>
<path d="M3630 2359 c0 -5 86 -9 205 -9 134 0 205 4 205 10 0 7 -70 10 -205
10 -119 -1 -205 -5 -205 -11z"/>
<path d="M2120 2343 c0 -5 5 -14 12 -21 8 -8 8 -12 1 -12 -6 0 -14 -7 -17 -16
-7 -18 19 -48 34 -39 14 8 13 35 -1 35 -6 0 -8 -7 -5 -16 6 -14 4 -15 -9 -4
-15 12 -14 15 4 24 19 11 19 11 0 35 -10 13 -19 19 -19 14z"/>
<path d="M4220 2337 c0 -30 44 -50 97 -43 27 4 78 9 116 12 37 3 65 9 62 14
-7 12 -149 2 -153 -10 -2 -6 -15 -10 -28 -10 -15 0 -23 4 -19 10 4 7 -2 9 -18
5 -19 -5 -29 -1 -41 16 -13 19 -16 20 -16 6z"/>
<path d="M73 2323 c72 -4 79 -6 87 -28 9 -25 50 -36 50 -14 0 6 -8 8 -19 4
-15 -4 -20 0 -23 17 -3 22 -7 23 -88 24 l-85 0 78 -3z"/>
<path d="M1763 2273 c-13 -8 -23 -24 -23 -34 0 -12 -5 -16 -15 -13 -12 5 -15
-2 -15 -30 0 -28 4 -36 18 -35 10 0 12 3 5 6 -18 7 -16 33 2 33 14 0 20 12 16
34 -1 5 6 6 15 2 18 -7 47 11 38 25 -3 5 4 9 15 9 11 0 24 -8 30 -17 8 -15 13
-16 29 -6 12 7 24 8 33 2 12 -8 11 -12 -5 -24 -19 -15 -19 -15 1 -15 12 0 23
6 26 13 2 6 7 -3 11 -20 9 -41 -1 -76 -20 -69 -8 3 -14 1 -14 -4 0 -9 21 -14
42 -11 4 0 5 -5 3 -12 -3 -6 8 -20 25 -29 16 -9 30 -22 30 -28 0 -16 -15 -12
-44 11 -14 11 -30 17 -36 14 -14 -9 -12 8 3 25 6 8 -1 3 -18 -11 -51 -44 -161
-35 -197 16 -4 5 2 13 12 17 27 10 25 23 -4 23 -13 0 -22 -5 -19 -11 6 -16
-48 -38 -84 -35 -18 1 -33 -2 -33 -7 0 -5 11 -7 25 -4 18 3 25 0 25 -12 0 -9
-5 -16 -11 -16 -5 0 -7 5 -3 12 5 8 2 9 -11 5 -9 -4 -23 -2 -31 3 -15 13 -98
-34 -91 -53 6 -20 -24 -45 -50 -41 -14 3 -22 1 -19 -5 4 -5 -14 -24 -38 -41
-25 -17 -50 -38 -55 -48 -10 -16 -10 -16 -11 0 0 9 17 29 38 44 50 38 63 52
27 30 -16 -10 -49 -38 -73 -62 -23 -24 -50 -44 -58 -44 -8 0 -12 -5 -9 -10 4
-7 14 -5 28 5 24 16 47 20 47 7 0 -5 -18 -15 -40 -22 -22 -7 -40 -17 -40 -21
0 -16 -156 -88 -178 -82 -17 4 -20 1 -15 -16 4 -15 1 -21 -10 -21 -9 0 -18 4
-21 9 -3 4 -34 12 -68 15 -58 7 -61 9 -44 22 18 13 14 14 -41 14 -34 0 -64 -4
-67 -8 -11 -19 14 -29 98 -39 48 -6 91 -14 95 -19 3 -5 22 -9 41 -9 28 0 35 4
33 18 -1 13 4 17 15 12 8 -3 18 -2 21 3 10 16 130 72 135 63 3 -4 -18 -19 -47
-32 -28 -13 -71 -39 -96 -57 -29 -23 -51 -32 -67 -29 -13 2 -21 1 -18 -4 2 -4
-15 3 -38 16 -27 15 -65 25 -103 28 -33 2 -72 9 -88 15 -22 9 -37 9 -70 -3
-47 -17 -128 -20 -142 -6 -6 5 -23 11 -40 13 -16 2 12 5 63 5 51 0 96 3 99 6
11 12 -10 27 -40 28 -18 1 -43 5 -57 9 -19 6 -9 8 37 9 42 1 66 -4 77 -14 19
-19 70 -19 86 0 6 7 33 16 58 18 39 3 39 3 -3 1 -27 -2 -69 -6 -91 -9 -26 -4
-44 -3 -48 4 -9 13 -125 14 -146 1 -13 -8 -13 -9 0 -14 8 -2 22 -7 30 -9 8 -3
-20 -6 -62 -6 -80 -1 -134 12 -123 29 8 13 48 13 62 -1 6 -6 19 -9 29 -7 12 2
4 8 -25 18 -53 17 -69 9 -96 -48 -14 -30 -31 -47 -61 -61 -47 -23 -104 -83
-104 -111 0 -23 10 -26 28 -8 6 6 14 9 18 5 7 -6 -72 -87 -86 -87 -4 0 -11 6
-13 13 -3 6 -6 2 -6 -10 -1 -14 5 -23 14 -23 12 0 15 -16 15 -80 0 -98 -19
-109 -21 -12 -1 37 -1 71 0 75 1 5 -3 6 -8 2 -13 -8 -32 30 -25 49 6 17 32 29
45 20 5 -3 9 0 9 5 0 6 -6 11 -12 11 -9 0 -8 4 2 10 8 5 10 10 4 10 -7 0 -22
-9 -35 -19 -19 -16 -24 -28 -22 -64 1 -25 9 -59 17 -76 15 -28 15 -33 1 -55
-12 -17 -16 -47 -16 -98 0 -40 0 -91 -1 -114 0 -23 7 -52 17 -67 18 -28 72
-60 86 -51 5 3 9 -4 9 -15 0 -11 12 -34 27 -52 16 -18 22 -30 16 -25 -7 4 -13
3 -13 -3 0 -10 88 -91 100 -91 5 0 13 -14 19 -32 6 -17 19 -40 28 -50 20 -22
71 -24 79 -3 8 19 37 19 74 0 41 -21 111 -22 143 0 25 16 29 16 52 1 36 -23
121 -12 151 21 24 26 43 28 89 11 28 -9 36 -8 58 8 15 10 27 22 27 27 0 11
-34 9 -46 -3 -7 -7 -21 -7 -42 1 -18 6 -40 8 -50 3 -9 -4 -21 -8 -27 -8 -5 -1
-20 -7 -33 -14 -32 -18 -118 -27 -126 -13 -4 6 0 12 8 12 9 1 19 2 24 3 4 1
28 5 54 10 26 4 50 11 53 16 3 4 24 11 46 15 24 4 37 11 32 16 -5 5 -22 5 -41
0 -18 -6 -32 -6 -32 -1 0 11 65 30 102 30 28 0 43 13 33 30 -4 6 -16 5 -34 -4
-29 -15 -153 -47 -159 -41 -7 6 56 35 76 35 11 0 31 11 46 25 37 34 61 31 108
-11 31 -28 46 -35 67 -31 18 4 42 -4 78 -26 55 -32 63 -50 40 -82 -13 -17 -16
-17 -63 9 -27 15 -65 40 -84 57 -32 28 -29 27 43 -12 60 -32 81 -39 90 -30 9
9 6 16 -13 31 -48 37 -70 45 -79 31 -7 -10 -15 -10 -41 4 -30 16 -33 15 -53
-2 -14 -12 -18 -13 -12 -3 7 13 6 13 -7 2 -8 -7 -24 -10 -34 -6 -16 5 -16 4
-4 -5 13 -9 13 -11 0 -11 -11 0 -10 -3 4 -11 13 -8 25 -8 43 2 23 12 27 11 43
-9 10 -12 20 -17 22 -11 2 6 14 2 29 -10 15 -11 56 -36 92 -55 64 -33 66 -33
69 -12 2 13 11 22 26 24 12 2 20 8 16 13 -3 5 -10 7 -15 3 -12 -7 -49 24 -49
42 0 21 -110 84 -136 78 -12 -3 -32 0 -44 6 -20 11 -20 13 -6 29 10 11 12 21
6 31 -13 20 -13 240 0 240 6 0 10 -7 10 -17 0 -9 3 -14 6 -10 6 5 54 -44 54
-56 0 -3 24 -45 53 -94 29 -49 59 -109 67 -132 10 -30 27 -53 58 -77 57 -43
91 -46 42 -3 -43 38 -26 30 65 -31 39 -26 121 -80 184 -120 63 -41 108 -76
102 -78 -7 -2 -21 4 -32 14 -10 9 -19 13 -19 8 0 -5 -5 -1 -11 9 -5 9 -14 17
-19 17 -6 0 0 -11 12 -25 12 -14 27 -25 34 -25 7 0 16 -5 20 -11 5 -9 -1 -10
-22 -5 -28 7 -29 7 -7 -8 16 -12 28 -14 48 -6 39 15 126 12 158 -5 15 -8 34
-12 42 -8 8 3 15 0 15 -6 0 -6 -3 -11 -7 -12 -5 0 -18 -2 -31 -5 -17 -3 -21 0
-16 8 4 7 -2 5 -13 -5 -11 -9 -22 -16 -24 -15 -2 2 2 -3 10 -10 10 -8 18 -9
25 -2 14 14 26 12 26 -4 0 -8 -8 -17 -17 -19 -14 -4 -13 -5 4 -6 12 0 24 -9
27 -18 3 -10 4 1 3 25 -2 23 0 42 3 43 3 1 19 2 36 4 32 3 124 51 124 65 0 21
-36 18 -72 -6 -21 -15 -38 -29 -38 -31 0 -2 5 -1 10 2 6 3 10 2 10 -4 0 -5 -6
-11 -12 -14 -14 -4 -48 29 -48 47 0 6 -4 5 -9 -3 -5 -8 -16 -11 -31 -6 -22 7
-22 8 -4 25 22 21 399 260 410 260 4 0 -1 -9 -11 -20 -10 -11 -21 -20 -26 -20
-9 0 -105 -64 -125 -84 -8 -9 -20 -16 -25 -16 -5 0 -9 -4 -9 -10 0 -5 7 -7 17
-3 18 7 161 96 209 130 l31 22 -11 63 c-10 62 -11 62 -16 23 -5 -38 -10 -42
-145 -133 -128 -85 -211 -138 -313 -199 -67 -41 -111 -29 -268 72 -204 132
-339 230 -336 244 3 13 -90 184 -140 259 -26 38 -33 42 -68 42 l-40 0 0 -125
0 -125 -60 0 -60 0 0 250 c0 156 -4 250 -10 250 -6 0 -8 -90 -5 -247 5 -258 7
-278 18 -289 16 -17 4 -24 -39 -24 -25 0 -43 -4 -40 -8 2 -4 -16 -9 -40 -10
-25 -1 -55 -7 -67 -14 -28 -16 -48 -16 -67 -2 -20 15 -106 24 -118 12 -16 -16
-76 -5 -80 15 -3 14 4 17 32 17 22 0 36 5 36 13 1 6 1 76 0 155 l-1 142 68 -1
68 -2 -52 -6 c-48 -6 -72 -16 -62 -25 2 -2 41 -6 87 -8 77 -4 86 -2 84 22 -2
38 -15 146 -17 148 -2 2 -46 0 -99 -4 -53 -4 -95 -8 -93 -10 2 -2 43 -4 90 -5
74 -1 85 -3 72 -15 -7 -8 -19 -14 -25 -14 -6 0 -8 -5 -5 -10 4 -6 16 -10 27
-8 16 2 22 -3 23 -19 1 -20 -4 -22 -80 -28 -46 -4 -91 -4 -103 -1 -12 4 -22 1
-25 -8 -4 -10 0 -12 14 -9 10 3 19 0 19 -6 0 -6 -7 -11 -15 -11 -8 0 -15 -7
-15 -16 0 -10 6 -14 14 -11 10 4 14 -1 13 -14 -1 -11 -7 -17 -14 -15 -8 3 -13
-2 -13 -14 0 -11 7 -20 15 -20 8 0 15 -4 15 -10 0 -5 -7 -10 -15 -10 -8 0 -15
-9 -15 -20 0 -11 7 -20 15 -20 8 0 15 -5 15 -11 0 -6 -6 -9 -14 -6 -11 4 -15
-5 -18 -38 -1 -24 0 -41 4 -38 5 2 8 0 8 -6 0 -16 -16 -22 -78 -26 -64 -4 -66
-3 -133 78 -36 43 -20 50 25 10 17 -15 5 -1 -26 32 l-57 60 -6 95 c-4 52 -12
106 -19 120 -10 22 -9 30 6 55 10 17 18 37 18 45 0 9 29 40 65 70 35 30 65 60
65 67 0 29 -22 18 -76 -39 -32 -35 -59 -57 -62 -50 -2 7 27 41 64 77 38 35 66
67 62 70 -9 9 -134 -115 -142 -142 -4 -12 -13 -27 -21 -33 -12 -10 -15 -9 -15
4 0 9 34 55 76 101 67 77 82 105 53 105 -5 0 -30 -19 -54 -41 -58 -53 -59 -37
-1 20 27 26 51 41 62 39 11 -1 35 9 54 23 75 56 84 45 12 -14 -23 -20 -38 -38
-33 -41 4 -3 16 3 26 14 10 11 22 20 27 20 15 0 8 -29 -9 -40 -15 -9 -12 -10
16 -6 18 3 42 6 52 6 12 0 23 10 29 25 12 32 34 32 62 0 18 -21 30 -25 77 -25
45 0 59 4 69 20 15 25 34 25 56 1 16 -18 33 -19 188 -20 156 -1 172 1 195 19
18 14 41 20 74 20 33 0 49 4 49 13 0 7 50 47 110 90 61 42 110 82 110 87 0 6
30 25 68 43 76 38 147 81 157 97 3 5 15 10 25 10 11 0 35 7 54 16 33 16 36 16
71 -5 41 -24 61 -27 67 -9 5 15 36 -4 90 -56 42 -40 107 -76 137 -76 11 0 34
-17 52 -40 47 -58 227 -170 274 -170 14 0 36 -10 48 -22 22 -22 28 -23 180
-20 144 3 158 5 171 24 l14 20 11 -21 c10 -19 21 -21 91 -21 69 0 79 2 85 19
3 11 12 22 20 25 21 8 61 -9 68 -28 5 -13 25 -16 107 -16 l100 0 0 -65 0 -65
-92 0 -93 0 0 -62 c0 -48 -9 -243 -18 -373 0 -5 3 -27 7 -47 5 -25 3 -38 -4
-38 -6 0 -8 -4 -5 -10 4 -6 -8 -10 -28 -10 l-34 0 -2 58 c-3 57 -7 104 -12
132 -1 8 -5 -5 -9 -30 -5 -35 -7 -22 -8 58 -2 74 -5 102 -14 102 -8 0 -9 3 -3
8 14 10 16 81 3 105 -7 13 -13 16 -21 8 -7 -7 -7 -14 2 -25 8 -10 9 -16 1 -21
-14 -9 -13 -21 6 -39 14 -15 14 -16 0 -16 -21 0 -20 -18 2 -44 16 -20 16 -20
0 -7 -16 12 -18 10 -18 -26 0 -21 6 -45 12 -51 15 -15 15 -11 16 -129 2 -88 3
-93 24 -93 20 0 20 -1 5 -18 -9 -9 -13 -22 -9 -28 7 -11 108 -11 119 -1 3 3 4
111 4 239 -2 194 1 236 13 253 20 26 20 35 1 35 -8 0 -15 5 -15 10 0 6 7 10
15 10 8 0 15 7 15 16 0 12 9 14 43 12 31 -2 42 -7 41 -19 -1 -12 5 -15 20 -11
15 3 18 2 11 -7 -6 -6 -30 -12 -53 -13 -43 -1 -59 -17 -19 -19 135 -6 124 -15
113 95 l-5 58 43 -6 c47 -7 71 8 60 37 -5 15 -8 15 -30 0 -17 -11 -28 -13 -35
-6 -7 7 -2 13 16 17 14 4 24 10 21 14 -2 4 8 7 23 8 14 0 42 8 61 17 50 23
150 50 158 43 3 -4 -4 -10 -17 -13 -13 -3 -44 -17 -70 -29 -25 -13 -51 -24
-57 -24 -6 0 -19 -10 -30 -22 -10 -12 -14 -19 -9 -17 152 75 148 74 230 74 44
0 104 -4 134 -9 43 -7 52 -6 46 4 -13 21 56 0 88 -26 16 -13 33 -22 37 -19 5
3 25 -19 44 -48 20 -30 58 -72 85 -95 36 -30 51 -51 57 -79 10 -48 5 -215 -7
-228 -19 -19 -8 -24 11 -5 11 11 25 20 30 20 6 0 10 16 10 35 0 19 5 35 10 35
6 0 10 -27 10 -60 0 -33 -4 -60 -9 -60 -5 0 -16 -3 -25 -6 -11 -4 -16 0 -17
12 0 15 -2 13 -10 -6 -8 -20 -12 -22 -19 -10 -8 12 -10 12 -10 -4 0 -11 -10
-31 -22 -45 -13 -14 -4 -8 20 14 56 52 54 28 -3 -29 -43 -44 -64 -59 -49 -34
4 7 3 8 -4 4 -6 -4 -9 -12 -7 -19 2 -7 -11 -30 -30 -51 -19 -22 -35 -33 -35
-25 0 8 -6 3 -13 -11 -7 -14 -23 -26 -37 -28 -14 -2 -35 -13 -47 -24 -18 -16
-34 -20 -90 -19 -71 1 -89 -5 -95 -28 -2 -11 8 -15 39 -15 22 -1 39 2 37 6 -3
4 11 4 31 1 28 -4 35 -2 35 11 0 10 8 16 22 16 20 0 20 -1 5 -12 -15 -11 -10
-13 33 -15 38 -2 52 2 59 15 5 9 12 14 15 11 3 -3 -5 -19 -17 -37 -24 -34 -51
-42 -61 -17 -4 13 -21 14 -102 9 -69 -4 -103 -2 -120 7 -20 10 -27 10 -43 -5
-17 -16 -25 -17 -53 -6 -62 23 -88 29 -88 21 0 -5 32 -19 70 -31 51 -16 77
-20 93 -14 12 5 55 8 96 6 69 -4 72 -5 47 -17 -15 -8 -41 -12 -58 -10 -18 2
-61 5 -96 6 -36 1 -81 8 -101 15 -20 7 -44 13 -54 14 -17 0 -17 -1 0 -19 36
-38 153 -69 153 -41 0 6 11 10 24 10 14 0 28 -4 31 -10 9 -14 55 -12 121 5 51
13 59 13 74 0 27 -24 76 -19 99 11 20 25 28 54 15 54 -3 0 -20 -11 -36 -25
-40 -34 -46 -26 -11 13 15 17 39 44 53 59 43 47 113 109 104 91 -5 -9 -25 -34
-44 -55 -61 -67 -65 -73 -46 -73 27 0 126 109 124 137 -1 13 -6 23 -10 23 -17
0 -6 17 40 64 36 38 48 45 50 32 2 -10 -5 -24 -15 -31 -10 -7 -14 -17 -10 -21
4 -4 19 3 32 17 24 23 25 32 27 144 2 77 -2 128 -9 141 -10 17 -9 25 4 43 27
40 -4 161 -42 161 -18 0 -75 69 -75 91 0 18 -73 89 -91 89 -7 0 9 -17 35 -37
48 -39 63 -83 29 -83 -13 0 -8 -9 17 -35 22 -23 43 -35 61 -35 44 0 80 -56 49
-75 -5 -3 -10 -1 -10 5 0 6 -5 8 -11 5 -6 -4 -8 -13 -5 -21 3 -7 1 -16 -3 -18
-12 -8 0 -60 15 -69 16 -9 20 -117 4 -117 -5 0 -10 22 -10 49 0 28 -4 53 -10
56 -5 3 -10 -2 -10 -11 0 -16 -1 -16 -15 2 -13 17 -14 14 -15 -39 0 -36 -4
-56 -10 -52 -17 10 -12 105 5 111 10 4 15 20 15 53 0 28 -4 41 -9 33 -13 -22
-34 13 -28 47 5 25 1 35 -31 62 -20 18 -36 37 -34 42 1 5 -1 6 -6 3 -10 -6
-76 61 -85 86 -3 9 -24 29 -47 43 -25 16 -40 33 -40 45 0 18 -7 20 -67 20 -48
0 -64 3 -53 10 8 5 29 10 45 11 24 1 22 3 -15 10 -25 5 -49 7 -55 5 -5 -3 1
-5 14 -5 38 -1 18 -11 -35 -18 -47 -5 -71 -21 -56 -34 4 -4 32 -9 62 -11 30
-3 47 -3 38 -1 -37 9 -16 19 42 21 57 2 60 0 75 -28 9 -17 21 -30 27 -30 6 0
8 -3 5 -6 -4 -4 -12 -2 -20 4 -7 6 -36 10 -65 8 -29 -1 -55 2 -58 6 -3 4 -30
8 -59 8 -44 0 -56 4 -65 20 -14 26 -66 28 -72 3 -3 -11 -23 -23 -48 -31 -47
-14 -64 -10 -31 8 12 6 21 17 21 25 0 8 5 15 11 15 5 0 7 -4 4 -10 -8 -12 5
-13 24 -1 17 11 6 31 -17 31 -9 -1 -34 -7 -54 -14 -41 -15 -52 -6 -15 12 12 6
16 11 10 11 -7 1 -21 -7 -30 -16 -10 -10 -29 -19 -43 -20 -173 -12 -168 -12
-208 14 -64 44 -98 54 -155 47 -36 -5 -46 -9 -32 -14 17 -6 16 -7 -7 -12 -16
-3 -25 -1 -22 4 3 5 0 8 -7 7 -8 -2 -24 3 -37 10 -13 7 -35 10 -50 8 -25 -4
-25 -4 4 -6 17 0 37 -7 43 -15 9 -11 2 -12 -39 -8 -32 3 -55 0 -65 -8 -26 -21
-17 -30 30 -30 29 0 45 4 45 13 0 8 22 12 78 12 51 0 80 -4 85 -12 4 -7 16
-13 26 -13 22 0 58 -26 49 -36 -9 -8 -68 15 -68 27 0 5 -37 9 -82 8 -57 -1
-75 -4 -58 -9 18 -6 4 -8 -47 -9 -39 -1 -75 4 -78 9 -10 16 -62 12 -69 -5 -4
-11 -20 -15 -58 -15 -67 0 -93 15 -31 18 104 4 113 35 12 40 -41 1 -59 -1 -50
-7 16 -10 3 -15 -66 -26 -38 -6 -55 -20 -57 -50 -2 -17 -36 -17 -61 -1 -33 22
-35 73 -2 86 l22 9 -22 0 c-12 1 -31 14 -43 31 -12 16 -41 41 -64 55 -65 38
-68 30 -3 -11 31 -19 57 -39 57 -44 0 -5 -10 -16 -22 -24 -19 -14 -20 -16 -5
-16 10 0 15 -4 12 -10 -4 -6 -24 -1 -50 13 -36 18 -41 24 -30 33 8 6 12 14 8
17 -3 4 -1 7 6 7 7 0 11 -6 8 -14 -8 -21 16 -39 31 -24 18 18 15 25 -23 48
-35 22 -65 21 -65 0 0 -6 5 -8 10 -5 6 3 10 -1 10 -9 0 -24 -22 -19 -68 15
-34 25 -40 34 -31 45 8 10 8 14 0 14 -6 0 -11 -4 -11 -10 0 -5 -10 -10 -23
-10 -26 0 -87 54 -87 78 0 12 3 13 11 5 9 -9 19 -8 41 3 22 11 33 12 51 3 34
-18 57 -41 51 -51 -4 -5 -18 2 -33 16 -30 29 -61 27 -61 -4 0 -24 17 -35 34
-21 17 14 46 4 46 -16 0 -8 10 -23 22 -33 21 -16 23 -16 34 -2 10 13 8 19 -7
30 -10 7 -19 19 -19 26 0 18 -51 63 -80 71 -53 14 -80 28 -80 41 0 13 -96 84
-114 84 -5 0 17 -17 48 -37 61 -41 71 -66 37 -97 -20 -18 -29 -16 -60 11 -9 7
-29 24 -46 37 -46 37 -26 39 28 4 43 -28 50 -29 63 -16 13 13 11 18 -20 41
-19 15 -37 27 -40 27 -3 0 -28 14 -54 30 -45 27 -50 34 -56 77 -4 34 -15 56
-38 80 -29 30 -37 33 -87 32 -34 0 -65 -6 -78 -16z m293 -220 c-8 -9 -86 40
-86 54 0 9 16 3 46 -17 25 -18 43 -34 40 -37z m-359 32 c-4 -8 -16 -15 -28
-15 -21 0 -21 0 2 19 26 21 35 20 26 -4z m-147 -35 c-34 -30 -50 -37 -50 -22
0 9 61 51 75 51 6 0 -6 -13 -25 -29z m180 5 c10 -12 10 -15 -4 -15 -9 0 -16 4
-16 9 0 5 -9 7 -20 4 -11 -3 -20 -11 -20 -18 0 -19 -27 -38 -35 -25 -4 6 -1 9
6 8 6 -2 14 3 16 10 4 9 -2 11 -20 7 -14 -4 -28 -2 -31 4 -4 6 1 11 11 12 27
1 66 9 72 14 9 10 29 5 41 -10z m310 -59 c41 -28 84 -54 95 -57 19 -6 19 -7 2
-14 -19 -8 -82 31 -132 81 -23 23 -40 28 -77 25 -18 -2 -24 10 -11 22 11 12
45 -4 123 -57z m-435 30 c17 -6 14 -10 -23 -32 -23 -14 -47 -22 -52 -19 -6 4
-31 -5 -56 -20 -25 -15 -48 -24 -51 -21 -4 3 -4 7 -2 9 67 46 91 58 106 53 26
-7 55 17 47 40 -3 11 -2 15 3 8 4 -6 17 -14 28 -18z m25 -36 c0 -5 -17 -17
-37 -25 -21 -9 -50 -27 -64 -41 -14 -14 -35 -23 -50 -22 -13 1 -49 -15 -81
-35 -31 -20 -62 -37 -68 -37 -5 0 -10 -9 -10 -20 0 -12 -16 -28 -43 -45 -58
-33 -77 -32 -35 2 47 40 58 51 58 60 0 12 161 105 169 97 2 -1 10 3 18 11 8 8
23 15 34 15 11 0 37 11 57 25 40 27 52 31 52 15z m-255 -100 c-3 -5 -13 -10
-21 -10 -8 0 -12 5 -9 10 3 6 13 10 21 10 8 0 12 -4 9 -10z m85 -9 c-14 -27
-67 -63 -87 -59 -11 2 1 15 38 40 64 44 62 43 49 19z m930 -111 c63 -38 121
-55 114 -35 -3 7 0 16 6 20 7 4 10 -4 8 -25 -2 -23 -6 -29 -18 -24 -8 3 -28
10 -45 14 -58 14 -155 75 -155 98 0 14 2 13 18 0 9 -9 42 -31 72 -48z m871 -1
c23 -11 38 -23 35 -27 -4 -3 12 -13 35 -23 32 -12 49 -13 69 -6 20 8 34 6 56
-5 27 -13 36 -13 85 3 61 21 83 23 74 10 -3 -5 -36 -19 -73 -32 -60 -20 -101
-51 -94 -71 1 -5 -8 -8 -20 -8 -28 0 -58 28 -58 55 0 17 -11 25 -55 39 -51 16
-73 35 -42 37 6 0 -6 9 -28 19 -23 11 -51 17 -65 14 -20 -4 -22 -3 -10 5 22
16 46 13 91 -10z m-1933 -1 c-2 -6 -15 -15 -28 -20 -23 -9 -23 -8 -5 12 20 22
39 27 33 8z m-838 -36 c0 -16 -32 -52 -46 -52 -12 0 -10 7 8 29 23 29 38 39
38 23z m730 -10 c0 -5 -26 -19 -57 -33 -32 -13 -61 -25 -65 -27 -4 -2 -8 1 -8
7 0 6 21 22 48 35 48 25 82 33 82 18z m2310 -2 c-8 -5 -22 -10 -30 -10 -13 0
-13 1 0 10 8 5 22 10 30 10 13 0 13 -1 0 -10z m-810 -10 c0 -5 -11 -10 -24
-10 -13 0 -31 -3 -40 -6 -9 -3 -16 -1 -16 4 0 9 17 14 68 21 6 0 12 -3 12 -9z
m-2205 -21 c-4 -5 -11 -9 -16 -9 -6 0 -17 -7 -26 -15 -8 -9 -18 -13 -22 -10
-8 9 50 55 61 49 5 -3 6 -10 3 -15z m195 1 c-9 -17 -21 -20 -75 -20 -35 0 -67
5 -70 10 -4 6 17 10 57 10 35 0 70 5 78 10 21 14 22 13 10 -10z m81 10 c26
-14 24 -30 -4 -30 -23 0 -47 17 -47 32 0 11 28 10 51 -2z m2199 -5 c68 -2 84
-4 78 -11 -11 -11 -156 -15 -163 -4 -10 16 5 32 24 24 9 -5 36 -9 61 -9z m838
-5 c17 0 32 -4 32 -10 0 -12 -121 -1 -135 13 -7 6 3 8 30 3 22 -3 55 -6 73 -6z
m-2894 -21 c6 -5 -9 -9 -36 -9 -51 0 -78 7 -78 21 0 12 101 0 114 -12z m1906
11 c3 -1 -6 -6 -20 -10 -40 -13 -90 -11 -105 3 -11 12 -2 13 53 11 37 -1 69
-3 72 -4z m389 4 c17 -4 31 -10 31 -15 0 -10 -61 0 -74 12 -12 11 -1 11 43 3z
m-539 -13 c0 -5 -12 -11 -27 -14 -26 -5 -26 -4 -8 9 22 16 35 18 35 5z m660
-1 c8 -5 12 -12 8 -15 -9 -9 -48 4 -48 16 0 12 21 11 40 -1z m186 -9 c-3 -5
-16 -11 -28 -14 -22 -6 -22 -5 -4 8 22 17 40 20 32 6z m619 -112 c22 -23 31
-36 20 -30 -32 17 -65 48 -65 60 0 16 2 15 45 -30z m-785 -79 c0 -5 -7 -10
-15 -10 -8 0 -15 5 -15 10 0 6 7 10 15 10 8 0 15 -4 15 -10z m-3220 -191 c0
-37 -4 -58 -10 -54 -16 10 -11 115 6 115 2 0 4 -27 4 -61z m70 -3 c0 -22 -5
-48 -10 -56 -7 -11 -10 0 -10 37 0 28 -3 60 -7 70 -6 16 -5 16 10 4 11 -9 17
-28 17 -55z m-40 -82 c0 -30 -4 -54 -10 -54 -6 0 -10 27 -10 61 0 37 4 58 10
54 6 -3 10 -31 10 -61z m40 -23 c12 -24 13 -51 2 -51 -9 0 -32 44 -32 60 0 17
19 11 30 -9z m-68 -18 c2 -20 9 -29 25 -31 22 -3 133 -132 114 -132 -5 0 -31
24 -57 53 -27 29 -58 56 -68 60 -17 7 -17 6 -5 -9 13 -16 12 -16 -7 -6 -24 12
-38 51 -28 76 9 25 22 19 26 -11z m4196 -37 c-2 -12 -17 -28 -36 -37 -35 -18
-82 -79 -82 -108 0 -19 -81 -101 -101 -101 -6 0 10 23 35 52 34 39 43 55 34
65 -10 12 -4 17 14 14 4 0 14 11 22 27 17 32 82 92 91 83 4 -3 3 8 -1 24 -7
28 -6 29 10 16 9 -8 16 -24 14 -35z m-4068 -58 c0 -18 -17 -6 -34 25 l-19 32
26 -24 c15 -14 27 -28 27 -33z m-10 -83 c7 -9 21 -13 31 -10 11 4 21 -1 28
-12 5 -11 21 -25 35 -33 14 -7 26 -17 26 -22 0 -17 -25 -7 -57 24 -18 18 -33
27 -33 22 0 -6 5 -15 12 -22 7 -7 8 -12 3 -12 -8 0 -75 68 -75 76 0 10 19 3
30 -11z m2905 -35 c-3 -5 -15 -10 -25 -10 -10 0 -22 5 -25 10 -4 6 7 10 25 10
18 0 29 -4 25 -10z m965 -20 c0 -12 -83 -95 -103 -103 -8 -3 -23 0 -33 8 -16
11 -16 15 -4 30 8 10 23 15 36 12 14 -2 35 7 60 29 44 38 44 38 44 24z m-3667
-41 c14 -19 21 -20 104 -14 75 6 91 5 102 -9 16 -20 35 -20 64 -2 27 16 100
29 92 15 -4 -5 -15 -9 -26 -9 -25 0 -59 -17 -59 -30 0 -15 52 -12 99 5 22 8
41 10 41 5 0 -28 -123 -55 -155 -34 -17 11 -25 11 -48 -1 -15 -7 -41 -16 -59
-18 -18 -2 -2 -5 36 -5 38 -1 67 -4 64 -7 -21 -21 -158 -13 -158 10 0 16 22
25 66 25 27 0 34 4 34 19 0 14 -9 20 -36 23 -19 2 -37 1 -39 -2 -2 -4 -44 -6
-92 -5 -75 1 -88 4 -87 18 1 9 -2 14 -7 11 -14 -8 -11 -44 4 -45 6 -1 52 0
101 1 61 1 86 -2 82 -9 -4 -6 -38 -11 -77 -11 -44 0 -68 -4 -64 -10 14 -23
-45 -8 -64 16 -27 34 -26 49 1 68 31 22 64 20 81 -5z m72 -97 c-11 -3 -29 -11
-40 -18 -22 -16 -65 -19 -65 -5 0 15 97 42 115 32 6 -3 1 -7 -10 -9z m3485
-44 c0 -4 -13 -2 -30 3 -29 11 -36 20 -24 32 7 7 53 -24 54 -35z"/>
<path d="M3400 1672 c0 -18 5 -23 22 -20 12 2 23 9 26 16 2 8 -2 10 -13 6 -10
-4 -21 -1 -26 7 -6 10 -9 8 -9 -9z"/>
<path d="M114 2236 c-3 -8 -4 -27 -1 -43 3 -24 4 -23 6 9 1 29 5 37 24 41 l22
4 -23 2 c-12 0 -25 -5 -28 -13z"/>
<path d="M4352 2244 c9 -3 19 -16 21 -30 4 -21 4 -21 3 3 -1 20 -7 28 -21 30
-14 1 -15 0 -3 -3z"/>
<path d="M1780 2210 c-27 -27 -25 -62 4 -89 60 -56 144 31 86 89 -11 11 -31
20 -45 20 -14 0 -34 -9 -45 -20z m78 -2 c15 -15 16 -52 1 -42 -6 3 -16 0 -21
-7 -7 -11 -11 -11 -15 -1 -2 6 -11 12 -18 12 -7 0 -16 6 -18 13 -3 7 -6 5 -6
-5 -1 -10 8 -27 19 -38 24 -24 14 -27 -12 -3 -22 20 -23 41 -1 65 18 21 53 24
71 6z"/>
<path d="M4320 2200 c0 -6 5 -8 10 -5 6 3 10 2 10 -4 0 -5 -4 -13 -10 -16 -6
-4 -10 -115 -10 -301 0 -189 4 -294 10 -294 6 0 11 108 12 300 0 165 1 305 2
312 1 6 -5 13 -11 16 -7 2 -13 -1 -13 -8z"/>
<path d="M174 1880 c0 -168 2 -236 3 -152 2 83 2 221 0 305 -1 83 -3 15 -3
-153z"/>
<path d="M4388 2173 c12 -2 32 -2 45 0 12 2 2 4 -23 4 -25 0 -35 -2 -22 -4z"/>
<path d="M114 1865 c-1 -167 2 -295 7 -295 5 0 9 129 9 295 0 162 -3 295 -7
295 -5 0 -9 -133 -9 -295z"/>
<path d="M4376 2152 c-9 -14 -4 -572 5 -578 5 -3 9 121 9 290 0 163 -2 296 -4
296 -3 0 -7 -4 -10 -8z"/>
<path d="M1804 1978 c-4 -6 -2 -14 4 -16 7 -2 -88 -70 -211 -151 -123 -82
-227 -156 -230 -165 -14 -36 -7 -122 13 -161 25 -49 26 -128 2 -175 -9 -19
-38 -51 -65 -70 -42 -31 -45 -36 -31 -47 10 -7 32 -54 50 -105 l33 -93 0 50
c1 33 -2 45 -8 36 -14 -21 -38 76 -32 127 0 6 10 12 21 12 12 0 20 7 20 17 0
9 9 27 21 39 29 31 36 118 15 183 -9 27 -16 81 -16 120 l0 70 50 24 c27 13 47
27 43 30 -3 4 -1 8 5 8 7 1 16 2 22 3 5 0 77 45 159 99 82 53 156 96 163 95 7
-2 20 -10 29 -18 26 -22 265 -170 320 -197 26 -13 53 -30 59 -38 15 -18 15
-221 0 -260 -19 -49 -6 -182 25 -257 4 -9 3 -23 -1 -30 -5 -7 -9 -44 -10 -81
-1 -37 -7 -74 -14 -82 -6 -7 -42 -31 -79 -54 -37 -22 -68 -47 -68 -55 0 -9 2
-16 5 -16 2 0 44 25 93 56 l89 57 0 96 0 96 19 -30 c10 -16 28 -39 40 -49 11
-11 21 -29 21 -42 0 -25 16 -41 22 -22 3 9 27 2 79 -22 70 -33 81 -35 209 -40
156 -6 162 -22 7 -21 -110 1 -125 2 -144 14 -7 4 -37 16 -67 27 -42 14 -54 15
-50 5 10 -26 117 -62 202 -67 8 -1 7 -8 -5 -22 -15 -17 -15 -18 -1 -8 9 8 59
15 119 18 57 3 107 8 110 10 6 4 3 66 -7 132 -5 31 -7 32 -52 32 -30 0 -42 -3
-33 -9 11 -7 11 -9 0 -14 -8 -3 0 -6 18 -6 35 -1 64 -33 42 -47 -8 -4 -7 -9 2
-15 27 -16 -22 -22 -149 -17 -125 5 -220 27 -206 49 3 5 -2 6 -12 2 -27 -10
-159 137 -180 201 -20 60 -22 158 -3 201 7 17 16 86 19 157 5 123 4 127 -16
137 -12 5 -115 69 -228 142 -142 91 -203 136 -196 143 5 5 10 15 10 20 0 6 -5
5 -12 -2 -15 -15 -32 -16 -23 -2 3 6 4 10 1 10 -3 0 -8 -5 -12 -12z"/>
<path d="M1702 1938 c7 -19 38 -22 38 -4 0 10 -9 16 -21 16 -12 0 -19 -5 -17
-12z"/>
<path d="M1900 1930 c0 -5 6 -10 14 -10 8 0 18 5 21 10 3 6 -3 10 -14 10 -12
0 -21 -4 -21 -10z"/>
<path d="M2032 1900 c7 -11 16 -20 20 -20 15 0 8 15 -12 28 -19 12 -20 11 -8
-8z"/>
<path d="M1527 1849 c-26 -18 -45 -34 -43 -36 4 -5 96 56 96 64 0 6 -4 3 -53
-28z"/>
<path d="M1145 1790 c-33 -16 -77 -29 -97 -30 -20 0 -39 -4 -42 -9 -8 -12 -53
-2 -67 15 -6 8 -15 14 -20 14 -5 0 -1 -8 10 -19 22 -22 67 -35 76 -21 3 5 22
10 41 10 32 0 164 52 164 64 0 7 6 10 -65 -24z"/>
<path d="M2755 1783 c-11 -2 -35 -12 -52 -21 -28 -14 -38 -14 -65 -4 -22 8
-35 9 -43 1 -7 -7 -5 -8 8 -4 10 5 17 2 17 -5 0 -16 89 -8 99 9 4 6 34 14 67
17 48 5 62 3 73 -10 17 -20 55 -21 71 -1 7 8 19 15 28 15 8 0 12 3 9 7 -4 3
-22 -2 -41 -12 -31 -17 -35 -17 -57 -2 -22 16 -69 20 -114 10z"/>
<path d="M3679 1774 c19 -8 42 -13 50 -11 10 3 8 5 -6 6 -12 0 -25 6 -28 11
-3 6 -16 10 -28 10 -17 -1 -15 -4 12 -16z"/>
<path d="M3776 1775 c-11 -8 -15 -15 -10 -15 6 0 14 4 20 9 5 5 23 11 39 14
l30 4 -30 1 c-16 1 -39 -5 -49 -13z"/>
<path d="M4020 1779 c-12 -8 -11 -9 7 -4 28 8 77 -33 71 -60 -4 -18 -6 -17
-16 7 -12 29 -36 50 -25 22 5 -13 2 -15 -17 -9 -16 5 -21 4 -18 -6 3 -8 16
-15 31 -17 14 -2 33 -14 41 -27 9 -14 22 -22 29 -19 11 4 8 16 -10 54 -30 63
-60 82 -93 59z"/>
<path d="M2562 1721 c2 -9 14 -17 26 -19 19 -3 23 1 20 15 -2 11 -13 18 -26
19 -16 1 -22 -4 -20 -15z"/>
<path d="M2251 1719 c-1 -21 21 -30 40 -18 11 7 9 9 -8 9 -12 0 -24 6 -26 13
-4 7 -6 6 -6 -4z"/>
<path d="M3953 1723 c-30 -4 -69 -33 -44 -33 6 0 11 5 11 10 0 6 16 10 35 10
19 0 35 5 35 10 0 6 -1 9 -2 8 -2 0 -17 -3 -35 -5z"/>
<path d="M2316 1674 c-8 -21 -1 -28 19 -20 9 3 15 11 13 18 -7 19 -25 20 -32
2z"/>
<path d="M1300 1671 c0 -19 22 -23 38 -7 15 15 14 16 -11 16 -15 0 -27 -4 -27
-9z"/>
<path d="M2366 1630 c7 -52 -3 -77 -47 -121 -42 -42 -16 -32 31 12 54 50 58
67 35 123 -21 49 -27 45 -19 -14z"/>
<path d="M4136 1647 c-17 -12 -16 -15 12 -42 33 -31 72 -43 72 -22 0 7 -15 27
-33 45 -29 28 -35 30 -51 19z"/>
<path d="M1282 1620 c0 -19 2 -27 5 -17 2 9 2 25 0 35 -3 9 -5 1 -5 -18z"/>
<path d="M871 1563 l-1 -63 -185 0 -185 0 0 -75 c0 -74 0 -75 26 -75 26 0 26
1 19 46 -4 32 -3 44 4 40 6 -4 9 -1 5 7 -4 11 2 13 23 11 l28 -4 -25 10 c-19
9 -27 8 -36 -4 -11 -16 -34 -22 -34 -10 0 19 41 33 93 34 41 0 57 -4 57 -14 0
-9 -9 -12 -27 -9 -27 3 -27 3 -5 -7 28 -12 42 -6 42 18 0 14 1 14 13 0 6 -9
22 -19 35 -23 18 -5 22 -2 22 14 0 14 6 21 20 21 14 0 20 -6 18 -17 -3 -15 5
-18 52 -18 l55 0 3 35 c1 19 -1 60 -6 90 l-10 55 -1 -62z m-149 -95 c-9 -9
-15 -9 -24 0 -9 9 -7 12 12 12 19 0 21 -3 12 -12z"/>
<path d="M2839 1608 c0 -7 0 -34 1 -60 l1 -48 -108 -1 c-118 0 -190 -6 -213
-16 -8 -3 -21 -7 -29 -9 -23 -4 -81 -66 -101 -106 -18 -37 -18 -38 1 -38 10 0
19 -4 19 -10 0 -5 -7 -10 -15 -10 -8 0 -15 -8 -15 -18 0 -10 -5 -23 -12 -30
-8 -8 -8 -15 -1 -24 6 -7 14 -27 17 -44 4 -17 17 -42 29 -55 12 -13 21 -26 20
-30 -1 -3 12 -19 28 -35 35 -34 106 -52 164 -43 l40 7 -47 -1 c-26 0 -51 2
-54 6 -4 4 12 7 35 7 23 0 40 4 36 9 -3 5 -21 8 -40 6 -19 -2 -35 1 -35 7 0 5
-5 6 -10 3 -6 -4 -17 -1 -25 5 -8 7 -15 9 -16 4 0 -5 -4 -1 -8 10 -7 17 -8 17
-23 2 -10 -10 -19 -12 -23 -6 -3 5 -1 10 4 10 14 0 14 37 1 45 -5 3 -10 1 -10
-6 0 -31 -17 12 -19 48 -1 7 -8 10 -18 6 -12 -5 -14 -3 -7 8 4 8 7 24 5 36 -1
13 7 36 18 52 12 16 21 34 21 40 0 6 5 11 10 11 6 0 10 6 10 13 0 20 74 56
121 58 24 1 92 -1 150 -4 l107 -7 1 110 c0 61 -1 110 -4 110 -3 0 -5 -6 -6
-12z m-259 -140 c0 -5 12 -8 28 -7 l27 1 -25 8 -25 8 28 1 c18 1 27 -4 27 -14
0 -9 9 -15 25 -15 16 0 25 6 25 15 0 8 5 15 10 15 11 0 13 -11 5 -33 -5 -10
-25 -13 -86 -11 -77 2 -81 1 -129 -35 -27 -20 -50 -41 -50 -48 0 -6 -5 -15
-11 -19 -8 -4 -9 1 -4 16 5 15 2 26 -6 32 -11 7 -9 8 5 6 10 -2 21 3 24 11 3
9 0 11 -8 6 -9 -6 -11 -4 -5 4 4 7 16 11 26 8 21 -6 27 9 7 15 -17 6 62 44 89
44 13 -1 23 -4 23 -8z m100 2 c0 -5 -7 -10 -15 -10 -8 0 -15 5 -15 10 0 6 7
10 15 10 8 0 15 -4 15 -10z m100 -5 c0 -8 9 -15 21 -15 44 0 6 -17 -41 -19
-51 -1 -72 18 -22 20 23 2 24 2 5 6 -33 6 -28 23 7 23 20 0 30 -5 30 -15z m40
5 c0 -5 -7 -10 -15 -10 -8 0 -15 5 -15 10 0 6 7 10 15 10 8 0 15 -4 15 -10z"/>
<path d="M2530 1461 c0 -5 -8 -12 -17 -14 -10 -2 -4 -4 14 -3 24 1 29 4 21 14
-12 14 -18 15 -18 3z"/>
<path d="M523 1603 c15 -2 39 -2 55 0 15 2 2 4 -28 4 -30 0 -43 -2 -27 -4z"/>
<path d="M1200 1600 c19 -4 29 -8 21 -9 -8 0 -12 -3 -9 -6 3 -3 13 -2 22 1 25
10 0 24 -39 23 -30 -2 -30 -2 5 -9z"/>
<path d="M1811 1590 c-2 -14 -11 -38 -21 -55 -21 -33 -30 -51 -139 -259 -39
-76 -70 -140 -68 -142 4 -5 198 338 221 392 10 23 16 52 13 65 l-4 24 -2 -25z"/>
<path d="M3971 1581 c69 -43 138 -138 155 -211 20 -92 19 -157 -6 -223 -62
-163 -239 -268 -403 -238 -32 6 -63 9 -70 7 -6 -1 -8 -1 -3 2 4 2 -16 17 -45
33 -58 32 -63 34 -53 17 5 -7 3 -8 -5 -4 -7 5 -10 10 -7 13 3 3 -12 26 -34 50
-22 25 -39 48 -38 52 0 3 -1 9 -2 14 -4 12 -7 26 -9 38 0 5 -7 7 -13 3 -8 -5
-7 0 2 11 8 10 10 16 3 12 -8 -5 -15 5 -22 30 -17 60 -14 80 10 79 12 -1 24 5
27 13 3 10 -2 12 -22 7 -29 -7 -32 3 -20 63 7 32 19 41 27 19 2 -8 3 -7 3 2
-1 8 -9 16 -18 18 -46 9 -51 -184 -6 -273 13 -27 25 -54 25 -58 1 -23 71 -115
97 -127 16 -7 31 -21 33 -31 6 -21 7 -21 71 -21 23 0 42 -4 42 -9 0 -4 7 -6
15 -3 8 4 15 2 15 -4 0 -5 37 -8 93 -5 72 3 95 8 107 21 8 10 22 16 31 14 9
-2 24 4 32 13 9 8 20 15 25 15 22 0 93 86 121 145 83 175 26 399 -129 508 -29
20 -58 37 -64 37 -5 0 10 -13 35 -29z m137 -513 c-31 -57 -108 -132 -158 -154
-22 -10 -40 -22 -40 -26 0 -5 -6 -3 -14 4 -11 11 -6 17 34 36 58 27 126 86
164 141 37 53 43 52 14 -1z m-488 -144 c0 -2 -13 2 -30 11 -16 9 -30 18 -30
21 0 2 14 -2 30 -11 17 -9 30 -18 30 -21z"/>
<path d="M2456 1584 c-19 -11 -25 -19 -18 -26 6 -6 19 -5 38 6 16 8 22 15 14
16 -13 0 -13 1 0 10 24 16 -2 11 -34 -6z"/>
<path d="M2576 1587 c-22 -16 -14 -37 14 -37 26 0 35 19 18 36 -12 12 -17 12
-32 1z"/>
<path d="M3071 1584 c0 -11 2 -14 5 -9 2 6 40 9 91 7 110 -3 103 7 -11 15 -80
5 -86 4 -85 -13z"/>
<path d="M410 1582 c0 -10 22 -32 32 -32 4 0 12 8 17 18 8 15 5 18 -20 20 -16
1 -29 -1 -29 -6z"/>
<path d="M680 1581 c14 -10 95 -13 85 -3 -2 3 -26 7 -52 9 -35 3 -44 1 -33 -6z"/>
<path d="M818 1579 c-24 -13 -23 -29 2 -29 13 0 20 7 20 20 0 23 1 23 -22 9z"/>
<path d="M913 1555 c0 -22 2 -30 4 -17 2 12 2 30 0 40 -3 9 -5 -1 -4 -23z"/>
<path d="M966 1575 c4 -9 11 -14 16 -13 15 5 11 23 -6 26 -11 2 -14 -2 -10
-13z"/>
<path d="M1260 1586 c0 -3 14 -12 30 -21 17 -9 30 -13 30 -11 0 3 -13 12 -30
21 -16 9 -30 13 -30 11z"/>
<path d="M2770 1575 c-10 -12 -9 -16 5 -21 23 -9 40 10 22 25 -11 9 -17 8 -27
-4z"/>
<path d="M2928 1582 c-19 -4 -24 -27 -9 -36 12 -8 42 17 33 29 -4 6 -15 9 -24
7z"/>
<path d="M3320 1580 c-11 -7 -12 -12 -3 -21 13 -13 33 -4 33 17 0 16 -9 18
-30 4z"/>
<path d="M1835 1555 c8 -27 188 -335 193 -330 2 2 -9 27 -25 57 -16 29 -49 88
-72 131 -24 42 -40 84 -37 92 4 10 -1 15 -14 15 -11 0 -27 12 -35 28 -9 15
-14 18 -10 7z"/>
<path d="M3740 1529 c-31 -3 -67 -12 -80 -20 l-25 -14 23 -3 c13 -2 20 -8 16
-14 -5 -7 -2 -8 6 -3 36 22 121 20 178 -5 49 -22 66 -25 57 -10 -3 6 -1 10 4
10 6 0 11 -8 11 -17 0 -9 3 -13 7 -10 7 8 43 -21 43 -35 0 -5 -7 -2 -16 7 -9
9 -23 14 -30 11 -7 -3 -16 -1 -19 4 -9 15 -25 12 -25 -5 0 -14 14 -19 47 -18
7 1 11 -3 8 -7 -7 -11 22 -20 43 -14 14 5 14 4 3 -4 -12 -9 -13 -17 -2 -54 7
-24 17 -51 22 -60 7 -13 5 -18 -6 -18 -18 0 -20 -31 -3 -48 9 -9 8 -12 -6 -12
-13 0 -17 -6 -14 -18 5 -18 -15 -45 -26 -35 -6 6 -10 -12 -7 -30 1 -4 -7 -7
-16 -5 -10 2 -17 -2 -15 -10 1 -6 -1 -11 -5 -11 -21 3 -33 -2 -33 -15 0 -8
-11 -13 -26 -13 -15 0 -30 -6 -34 -13 -5 -8 -10 -9 -14 -1 -4 7 -15 7 -31 1
-16 -6 -27 -6 -31 1 -3 6 -19 8 -35 5 -22 -4 -29 -2 -29 10 0 10 -6 14 -15 10
-8 -3 -15 -1 -15 4 0 6 -7 10 -15 10 -8 0 -14 5 -13 12 2 7 -4 12 -12 13 -8 0
-16 6 -16 13 -1 6 -2 17 -3 23 0 5 -5 8 -10 5 -14 -9 -25 114 -12 127 6 6 11
18 11 27 0 17 80 110 95 110 6 0 24 11 40 25 45 36 5 33 -51 -4 -24 -17 -46
-26 -49 -20 -4 5 -11 7 -16 4 -5 -4 -9 1 -9 9 0 15 12 21 34 17 10 -2 36 19
36 30 0 4 -10 11 -21 14 -17 6 -29 -1 -55 -31 -46 -53 -62 -93 -43 -106 11 -8
11 -9 -3 -5 -12 4 -18 -3 -22 -27 -7 -36 1 -69 14 -61 5 3 11 1 15 -5 3 -5 -1
-10 -10 -10 -12 0 -14 -6 -8 -27 4 -16 7 -36 7 -45 0 -9 3 -15 7 -12 4 2 9 -3
12 -10 3 -8 1 -16 -5 -18 -18 -6 75 -87 117 -101 29 -10 60 -12 114 -6 41 5
79 5 84 2 6 -3 7 -1 4 4 -8 12 20 26 34 17 5 -3 7 -10 4 -15 -9 -13 6 -11 35
6 l25 14 -27 -2 c-27 -2 -40 14 -17 22 8 2 9 -1 3 -10 -7 -12 -5 -12 9 0 9 7
15 17 12 21 -5 8 44 57 52 52 2 -2 8 0 11 4 4 4 1 4 -5 0 -17 -10 -16 -6 7 45
19 43 29 166 12 155 -4 -2 -13 4 -20 15 -7 11 -8 19 -2 19 5 0 10 -5 10 -12 0
-6 3 -9 6 -5 11 11 -8 49 -43 88 -67 74 -134 100 -233 88z m65 -19 c3 -5 -3
-10 -14 -10 -12 0 -21 5 -21 10 0 6 6 10 14 10 8 0 18 -4 21 -10z m-85 -9 c0
-6 -9 -9 -20 -8 -11 1 -20 5 -20 9 0 4 9 8 20 8 11 0 20 -4 20 -9z m137 -8 c3
-7 -3 -9 -16 -6 -12 3 -21 10 -21 15 0 13 32 6 37 -9z m-257 -93 c18 -10 18
-11 -6 -35 -13 -13 -24 -29 -24 -36 0 -12 -29 -38 -42 -39 -17 0 -7 18 12 23
11 3 20 13 20 22 0 9 7 23 15 31 8 9 15 20 15 27 0 6 -7 2 -15 -9 -12 -15 -14
-16 -15 -3 0 28 12 34 40 19z"/>
<path d="M2415 1520 c-8 -12 20 -24 35 -15 6 3 8 11 5 16 -8 12 -32 12 -40 -1z"/>
<path d="M3982 1515 c-11 -13 -10 -15 5 -16 10 0 28 -2 41 -3 21 -3 21 -2 5
16 -19 22 -33 22 -51 3z"/>
<path d="M3512 1503 c4 -22 43 -25 43 -3 0 8 -11 16 -23 18 -19 3 -23 0 -20
-15z"/>
<path d="M3455 1473 c-27 -40 -34 -71 -9 -38 20 26 46 75 40 75 -3 0 -17 -17
-31 -37z"/>
<path d="M380 1228 l-5 -276 28 -5 c31 -4 32 0 12 27 -11 15 -16 16 -17 5 -1
-8 -5 108 -8 256 l-5 270 -5 -277z"/>
<path d="M1043 1479 c4 -13 7 -52 7 -87 0 -60 1 -63 23 -60 20 3 22 8 22 68 0
54 3 65 18 68 10 2 17 -3 17 -12 0 -12 10 -16 35 -16 26 0 45 -9 75 -36 44
-40 56 -40 41 -3 -17 47 -66 89 -103 89 -18 0 -57 3 -87 7 -54 6 -54 6 -48
-18z"/>
<path d="M2894 1453 c13 -52 7 -50 106 -45 28 1 40 6 40 17 0 12 -8 14 -40 9
-27 -4 -40 -3 -40 5 0 6 12 12 28 12 23 2 24 2 5 6 -31 6 -29 23 2 23 14 0 25
-4 25 -9 0 -5 14 -3 30 5 17 9 30 17 30 20 0 2 -45 4 -99 4 l-99 0 12 -47z
m63 17 c1 -11 -2 -20 -8 -20 -10 0 -12 23 -2 33 9 9 9 10 10 -13z"/>
<path d="M401 1445 l1 -50 8 40 c5 22 4 44 -1 50 -5 5 -9 -11 -8 -40z"/>
<path d="M4309 1471 c16 -10 6 -31 -15 -31 -8 0 -12 -4 -9 -10 11 -18 31 -11
43 14 12 26 7 36 -17 36 -13 0 -13 -2 -2 -9z"/>
<path d="M3050 1459 c-11 -8 -12 -12 -2 -16 6 -2 10 -9 6 -14 -3 -5 0 -9 5 -9
6 0 11 11 11 25 0 28 0 28 -20 14z"/>
<path d="M3254 1459 c-3 -5 9 -9 25 -9 17 0 31 2 31 4 0 8 -51 13 -56 5z"/>
<path d="M3755 1460 c3 -5 20 -10 36 -10 17 0 39 -5 51 -11 23 -12 37 -4 20
13 -15 15 -116 22 -107 8z"/>
<path d="M590 1420 c0 -5 17 -10 39 -10 21 0 59 -3 85 -6 38 -6 46 -4 46 10 0
14 -13 16 -85 16 -50 0 -85 -4 -85 -10z"/>
<path d="M1815 1400 c5 -9 2 -10 -14 -5 -15 5 -21 2 -21 -9 0 -20 36 -21 43
-1 4 8 1 17 -5 21 -7 5 -8 2 -3 -6z"/>
<path d="M1850 1378 c0 -11 28 -10 35 1 3 6 -4 9 -15 8 -11 -1 -20 -5 -20 -9z"/>
<path d="M943 1315 c0 -27 2 -38 4 -22 2 15 2 37 0 50 -2 12 -4 0 -4 -28z"/>
<path d="M1251 1341 c-15 -9 -56 -18 -100 -22 l-76 -6 75 -3 75 -3 -55 -7 -55
-7 48 -1 c48 -2 93 14 116 41 18 22 0 27 -28 8z m10 -11 c-13 -11 -28 -20 -35
-20 -6 0 3 9 19 19 39 25 46 25 16 1z"/>
<path d="M1817 1334 c-3 -3 -4 -11 -1 -17 2 -7 -18 -49 -45 -95 -35 -59 -47
-90 -43 -105 7 -22 7 -22 10 1 2 13 21 51 43 84 21 34 39 65 39 70 0 5 5 8 12
6 11 -4 25 -27 69 -111 11 -22 22 -37 25 -34 6 5 -87 181 -98 185 -4 2 -6 8
-2 13 6 10 1 12 -9 3z"/>
<path d="M435 1300 c-19 -7 -19 -8 -2 -15 19 -8 31 -2 26 13 -2 5 -13 6 -24 2z"/>
<path d="M978 1303 c-22 -5 -23 -19 -4 -26 8 -3 20 0 26 8 13 15 3 23 -22 18z"/>
<path d="M1300 1300 c-8 -5 -11 -12 -8 -16 10 -9 38 3 38 16 0 12 -10 13 -30
0z"/>
<path d="M3115 1290 c-4 -6 5 -10 19 -10 14 0 26 5 26 10 0 6 -9 10 -19 10
-11 0 -23 -4 -26 -10z"/>
<path d="M4086 1280 c-15 -5 -16 -9 -7 -14 7 -5 18 -3 24 3 14 14 6 20 -17 11z"/>
<path d="M943 1205 c0 -33 2 -45 4 -27 2 18 2 45 0 60 -2 15 -4 0 -4 -33z"/>
<path d="M940 1075 c0 -38 3 -66 6 -63 3 4 5 32 5 63 0 31 -2 59 -5 63 -3 3
-6 -25 -6 -63z"/>
<path d="M1600 1081 c19 -4 60 -4 90 0 48 5 44 6 -35 6 -59 1 -78 -2 -55 -6z"/>
<path d="M1985 1081 c33 -3 65 -9 72 -14 13 -8 43 1 43 14 0 5 -39 8 -87 7
-84 -1 -85 -1 -28 -7z"/>
<path d="M2650 1059 c0 -5 25 -9 55 -9 30 0 55 4 55 9 0 5 -25 9 -55 9 -30 0
-55 -5 -55 -9z"/>
<path d="M2770 1060 c0 -5 14 -10 31 -10 17 0 28 4 24 10 -3 6 -17 10 -31 10
-13 0 -24 -4 -24 -10z"/>
<path d="M3975 1050 c3 -5 15 -10 25 -10 10 0 22 5 25 10 4 6 -7 10 -25 10
-18 0 -29 -4 -25 -10z"/>
<path d="M3515 1040 c3 -5 13 -10 21 -10 8 0 14 5 14 10 0 6 -9 10 -21 10 -11
0 -17 -4 -14 -10z"/>
<path d="M436 1010 c-15 -5 -16 -9 -7 -14 7 -5 18 -3 24 3 14 14 6 20 -17 11z"/>
<path d="M980 1010 c-8 -5 -11 -12 -7 -16 4 -4 13 -2 19 4 15 15 7 24 -12 12z"/>
<path d="M2663 1013 c15 -2 37 -2 50 0 12 2 0 4 -28 4 -27 0 -38 -2 -22 -4z"/>
<path d="M3120 1000 c0 -5 6 -10 14 -10 8 0 18 5 21 10 3 6 -3 10 -14 10 -12
0 -21 -4 -21 -10z"/>
<path d="M3740 1006 c0 -2 18 -6 40 -8 22 -2 40 0 40 4 0 5 -18 8 -40 8 -22 0
-40 -2 -40 -4z"/>
<path d="M940 988 c0 -15 8 -18 48 -16 47 1 47 1 7 5 -22 3 -43 10 -47 16 -5
8 -8 6 -8 -5z"/>
<path d="M2574 982 c11 -12 19 -13 27 -5 7 7 3 12 -16 15 -25 5 -25 4 -11 -10z"/>
<path d="M120 690 l0 -299 -62 -4 -63 -3 68 -2 67 -2 0 305 c0 168 -2 305 -5
305 -3 0 -5 -135 -5 -300z"/>
<path d="M2766 978 c7 -11 34 -10 34 1 0 6 -9 9 -19 8 -11 0 -17 -5 -15 -9z"/>
<path d="M1378 954 c5 -29 91 -89 130 -91 30 -2 28 1 -15 28 -21 13 -44 28
-52 33 -10 6 -12 5 -6 -4 5 -8 3 -11 -6 -8 -8 3 -13 10 -12 16 2 6 -4 9 -12 6
-10 -4 -13 -2 -10 8 3 8 0 20 -8 26 -12 10 -13 8 -9 -14z"/>
<path d="M4373 683 l2 -298 65 -1 c64 -1 64 -1 8 3 l-58 4 0 294 c0 176 -4
295 -9 295 -6 0 -9 -119 -8 -297z"/>
<path d="M168 673 c3 -278 0 -329 -18 -318 -6 3 -10 1 -10 -4 0 -17 27 -13 34
5 9 23 7 594 -1 594 -5 0 -7 -125 -5 -277z"/>
<path d="M1325 929 c-11 -4 -15 -8 -10 -8 6 -1 3 -6 -5 -12 -11 -8 -9 -9 10
-4 14 4 29 11 33 15 13 12 -6 18 -28 9z"/>
<path d="M4322 641 c3 -256 8 -332 21 -310 8 14 -5 609 -14 609 -6 0 -9 -102
-7 -299z"/>
<path d="M3344 908 l-19 -21 30 18 c41 26 40 25 23 25 -8 0 -23 -10 -34 -22z"/>
<path d="M3413 919 c9 -5 17 -16 17 -23 0 -14 45 -27 93 -27 15 0 27 -4 27 -9
0 -6 0 -13 0 -17 0 -12 -33 -10 -56 3 -32 19 -70 22 -66 5 2 -8 -3 -11 -13 -8
-8 4 -15 3 -15 -2 0 -4 -13 -6 -28 -3 -19 2 -52 -8 -98 -31 -104 -52 -118 -53
-132 -13 -15 40 -52 63 -78 48 -17 -10 -15 -11 10 -9 16 1 31 -4 33 -11 3 -6
-1 -10 -9 -9 -7 2 -10 2 -5 0 13 -8 8 -23 -8 -23 -8 0 -15 3 -15 8 0 4 -35 8
-77 9 -43 1 -79 7 -81 13 -4 11 -61 14 -86 4 -30 -11 -5 -34 38 -34 23 0 48
-6 55 -12 11 -11 12 -10 6 1 -6 11 4 12 56 8 35 -4 76 -9 91 -13 21 -5 29 -2
34 10 7 19 24 21 24 4 -1 -19 -36 -58 -53 -58 -7 0 -22 9 -32 20 -26 28 -125
27 -125 -2 0 -6 7 -7 16 -4 8 3 12 2 9 -4 -3 -5 -31 -7 -63 -5 -31 2 -63 4
-69 4 -7 1 -13 6 -13 12 0 7 19 8 56 3 41 -5 55 -4 50 5 -4 6 -27 11 -52 11
-30 0 -46 5 -50 15 -8 20 -48 19 -64 0 -9 -10 -23 -14 -39 -11 -14 3 -43 7
-63 8 -21 1 -38 5 -38 9 0 4 -14 4 -31 -1 -17 -5 -34 -9 -38 -8 -3 0 -11 0
-18 -1 -12 -1 -136 -91 -141 -103 -5 -12 -32 -10 -32 2 0 5 18 22 40 36 22 15
37 31 33 37 -3 5 -1 7 5 3 6 -3 13 -2 17 4 3 6 25 19 47 30 35 17 54 19 139
14 105 -6 128 -2 108 22 -13 16 -94 20 -84 4 7 -12 -40 -13 -109 -4 -51 7 -58
19 -21 36 21 9 28 8 45 -7 11 -10 23 -16 26 -12 3 3 -6 13 -21 23 -31 20 -66
9 -85 -27 -8 -15 -9 -19 -1 -15 6 4 11 5 11 3 0 -7 -51 -39 -64 -41 -25 -4
-87 -49 -82 -61 2 -7 -12 -20 -32 -31 -59 -29 -74 -35 -67 -24 10 16 -18 12
-43 -6 -14 -9 -21 -22 -18 -31 4 -10 1 -13 -13 -8 -10 3 -23 -1 -30 -9 -7 -8
-20 -12 -29 -9 -15 6 -15 5 -3 -11 14 -17 16 -17 27 -1 9 11 19 15 34 10 16
-5 34 2 65 24 47 34 60 38 48 17 -14 -25 -85 -68 -104 -63 -10 3 -28 -6 -43
-22 -14 -14 -51 -40 -83 -56 -71 -37 -92 -61 -93 -103 0 -24 -6 -35 -22 -42
-28 -12 -61 -33 -68 -42 -3 -4 -19 -6 -35 -4 -17 2 -39 0 -50 -5 -14 -5 -2 -8
37 -8 47 -1 62 3 90 26 l33 27 -29 -32 c-26 -28 -36 -32 -82 -32 -29 0 -60 3
-68 6 -15 6 -15 8 1 20 17 13 17 13 -4 14 -35 0 -73 54 -73 106 0 35 -3 44
-17 44 -15 0 -16 -2 -3 -10 13 -8 12 -10 -3 -10 -11 0 -15 -4 -11 -12 4 -7 3
-8 -5 -4 -6 4 -9 10 -7 14 7 11 -17 37 -49 55 -16 9 -23 16 -15 17 8 0 30 -9
49 -21 18 -11 40 -18 47 -15 17 7 18 32 2 42 -7 4 -8 3 -4 -4 13 -22 -28 -13
-67 14 -21 14 -54 32 -73 40 -19 8 -34 19 -34 24 0 12 13 13 26 1 5 -5 20 -12
34 -16 15 -4 7 5 -23 24 -26 17 -60 31 -75 31 -34 0 -57 14 -47 30 5 8 12 7
26 -6 10 -9 19 -12 19 -7 0 6 -7 13 -15 17 -8 3 -15 14 -15 24 0 22 -40 62
-61 62 -8 0 -3 -6 11 -13 32 -16 43 -81 13 -75 -10 2 -17 11 -15 20 1 8 -6 18
-15 22 -10 3 -25 9 -33 12 -8 4 -6 -1 5 -11 20 -16 20 -16 -2 -12 -40 9 -25
-12 30 -39 68 -35 196 -117 196 -126 2 -17 -24 -6 -83 35 -48 35 -336 187
-353 187 -2 0 1 -8 6 -19 12 -21 61 -53 114 -72 20 -7 52 -32 72 -56 25 -30
44 -43 62 -43 16 0 43 -15 72 -41 69 -60 68 -60 118 -63 45 -2 73 -22 73 -51
0 -7 14 -24 30 -38 16 -15 30 -35 30 -46 0 -10 18 -39 41 -65 37 -42 45 -46
85 -46 81 0 135 46 149 127 7 46 26 68 51 59 18 -7 98 44 130 82 14 18 26 23
39 18 25 -9 113 49 121 81 6 22 10 24 43 18 32 -5 43 -1 84 30 26 20 47 40 47
45 0 6 16 10 35 10 20 0 47 7 60 16 18 11 29 13 38 6 6 -5 36 -13 65 -17 44
-6 57 -4 73 11 19 17 22 17 48 1 33 -19 137 -25 153 -9 20 20 52 13 86 -18 41
-37 58 -38 93 -4 23 22 30 24 48 14 19 -10 33 -5 97 29 42 23 89 41 105 41 16
0 40 7 52 15 22 14 67 11 67 -5 0 -12 36 -19 50 -10 18 11 3 30 -23 31 -21 0
-21 1 2 10 14 5 30 8 37 5 7 -3 14 0 16 5 2 7 26 3 62 -10 32 -11 63 -18 67
-15 14 8 11 34 -4 34 -7 0 -30 9 -52 20 -41 21 -61 27 -35 10 8 -5 12 -12 8
-15 -9 -9 -105 42 -111 60 -4 8 -12 15 -19 14 -10 0 -10 -2 0 -6 27 -11 10
-23 -30 -22 -24 1 -36 3 -26 6 9 2 19 11 22 19 4 11 2 12 -14 4 -12 -7 -21 -7
-25 0 -3 5 -14 10 -23 10 -16 -1 -16 -1 1 -11z m80 -93 c9 -7 17 -15 17 -17 0
-3 -33 -4 -72 -3 -65 1 -81 -3 -154 -37 -89 -42 -114 -47 -114 -24 0 8 9 15
19 15 22 0 83 27 123 53 21 14 37 17 71 12 29 -5 47 -3 51 4 10 15 37 13 59
-3z m-733 -81 c-8 -10 -29 -12 -83 -8 -40 3 -98 1 -129 -5 -43 -7 -58 -6 -62
4 -7 19 4 24 31 13 17 -6 32 -5 51 5 18 8 49 11 93 8 37 -2 75 0 85 6 23 13
32 -2 14 -23z m400 -22 c0 -9 -3 -14 -6 -10 -3 3 -16 2 -29 -3 -31 -12 -40 0
-12 16 32 17 47 17 47 -3z m-692 -13 c-16 -26 -99 -70 -132 -70 -15 0 -29 -7
-33 -15 -5 -16 -61 -50 -69 -43 -8 9 87 78 108 78 13 0 46 16 73 35 57 39 70
43 53 15z m-910 -197 c20 -19 4 -16 -39 9 -22 12 -39 26 -39 30 0 10 56 -19
78 -39z m577 8 c-9 -16 -95 -64 -101 -58 -3 3 18 21 47 41 51 34 69 39 54 17z"/>
<path d="M3390 895 c0 -9 -6 -15 -12 -12 -7 2 -36 -4 -64 -14 -29 -9 -58 -17
-65 -16 -24 1 -99 -36 -99 -49 0 -26 20 -23 104 16 47 21 102 42 121 46 42 7
50 17 30 34 -12 10 -15 9 -15 -5z"/>
<path d="M2281 891 c-9 -6 -10 -11 -2 -15 13 -8 31 1 31 15 0 11 -11 11 -29 0z"/>
<path d="M3220 874 c-16 -10 -18 -13 -5 -8 11 4 30 8 43 8 12 1 22 4 22 9 0
12 -33 7 -60 -9z"/>
<path d="M1515 845 c32 -26 59 -39 50 -25 -5 8 -3 11 6 8 8 -3 15 -10 15 -16
3 -25 5 -27 14 -12 8 13 10 13 10 -2 0 -9 5 -20 12 -24 7 -5 8 -3 3 6 -5 8 -3
11 6 8 8 -3 14 -10 14 -16 0 -6 10 -19 23 -27 13 -10 22 -12 22 -5 0 6 5 8 12
4 7 -4 8 -3 4 4 -4 6 -14 8 -23 5 -10 -4 -14 -2 -10 4 4 6 -25 32 -64 57 -39
26 -68 43 -64 37 8 -14 0 -14 -28 0 -22 10 -22 10 -2 -6z"/>
<path d="M2899 839 c14 -5 30 -8 38 -5 7 3 15 1 18 -4 4 -6 25 -9 48 -8 41 1
41 1 7 5 -19 3 -39 9 -44 14 -6 5 -28 9 -50 8 -37 0 -39 -1 -17 -10z"/>
<path d="M3766 833 c9 -7 21 -10 25 -7 17 10 9 19 -16 19 -22 0 -23 -1 -9 -12z"/>
<path d="M2069 833 c-1 -5 -1 -12 0 -16 1 -5 -3 -6 -8 -2 -14 8 -112 -55 -104
-67 3 -7 1 -8 -5 -4 -15 9 -64 -23 -55 -37 3 -6 1 -7 -5 -3 -18 11 -37 -4 -21
-16 10 -7 8 -8 -8 -3 -12 3 -24 1 -28 -5 -5 -8 -12 -7 -23 3 -31 25 -96 61
-87 47 6 -10 4 -12 -8 -7 -10 3 -17 5 -17 3 0 -6 115 -79 125 -79 21 0 205
125 198 136 -3 6 -1 7 5 3 15 -9 55 18 58 39 1 8 -2 15 -7 15 -5 0 -10 -3 -10
-7z"/>
<path d="M1487 723 c-4 -3 14 -21 39 -40 24 -19 42 -38 39 -42 -2 -5 2 -14 10
-21 8 -7 15 -20 15 -29 0 -19 66 -55 75 -41 6 10 -1 15 -37 24 -16 3 -28 12
-28 18 0 6 -8 20 -17 31 -17 19 -17 19 5 13 12 -4 22 -4 22 0 0 14 -115 96
-123 87z"/>
<path d="M2289 714 c-8 -10 -21 -13 -38 -10 -23 6 -24 5 -7 -5 20 -12 66 2 66
21 0 14 -5 13 -21 -6z"/>
<path d="M1930 690 c-20 -16 -21 -20 -8 -20 10 0 22 9 28 20 13 25 11 25 -20
0z"/>
<path d="M2150 655 c-13 -14 -31 -25 -39 -25 -9 0 -23 -5 -31 -10 -11 -8 -7
-9 15 -4 25 5 102 64 84 64 -3 0 -16 -11 -29 -25z"/>
<path d="M1854 639 c-3 -6 -17 -9 -30 -6 -27 5 -23 -8 4 -15 12 -3 23 2 31 13
6 11 9 19 7 19 -3 0 -8 -5 -12 -11z"/>
<path d="M2012 584 c-12 -8 -27 -12 -34 -8 -7 4 -8 3 -4 -4 10 -16 17 -15 46
8 30 23 24 27 -8 4z"/>
<path d="M1735 510 c3 -5 13 -10 21 -10 8 0 12 -4 9 -10 -7 -12 5 -13 22 -2 8
5 9 13 3 22 -7 11 -10 11 -10 2 0 -9 -5 -10 -19 -2 -25 13 -34 13 -26 0z"/>
<path d="M1786 469 c-31 -25 -34 -61 -6 -89 25 -25 51 -25 80 -2 34 28 25 102
-13 102 -5 0 -2 -9 8 -20 21 -23 13 -50 -15 -50 -12 0 -19 4 -16 8 2 4 -4 8
-14 9 -13 1 -17 -3 -13 -13 3 -8 0 -14 -6 -14 -18 0 -24 26 -11 49 6 12 17 21
25 21 7 0 17 5 20 10 11 17 -11 11 -39 -11z"/>
<path d="M1741 473 c-1 -7 -9 -13 -18 -13 -13 0 -14 -3 -5 -12 15 -15 37 3 29
24 -4 9 -6 10 -6 1z"/>
<path d="M1723 393 c-17 -6 -16 -23 1 -23 8 0 16 7 20 15 6 15 1 17 -21 8z"/>
<path d="M1915 390 c-11 -5 -15 -9 -10 -10 6 -1 18 -3 27 -5 11 -2 15 2 11 11
-3 8 -6 14 -7 13 0 0 -10 -4 -21 -9z"/>
<path d="M187 312 c11 -4 60 -44 108 -89 48 -46 95 -83 106 -83 16 0 19 -8 21
-47 l1 -48 4 45 c3 32 0 47 -11 56 -14 10 -15 13 -1 24 20 16 19 34 -2 51 -15
13 -15 12 -2 -9 13 -21 12 -25 -5 -38 -28 -20 -36 -18 -36 14 0 20 -3 23 -9
13 -8 -12 -25 -1 -84 52 -41 37 -83 67 -93 66 -16 -1 -15 -2 3 -7z"/>
<path d="M4224 258 l-29 -33 33 29 c17 17 32 31 32 33 0 8 -8 1 -36 -29z"/>
<path d="M121 270 c3 -36 -2 -39 -63 -43 -56 -3 -55 -4 12 -3 46 1 73 5 71 11
-3 6 8 13 25 16 l29 7 -32 1 c-17 0 -34 7 -37 14 -4 8 -5 7 -5 -3z"/>
<path d="M4358 258 c-2 -17 -10 -23 -30 -23 -14 0 -30 -3 -34 -8 -4 -4 15 -7
44 -6 36 2 49 6 43 13 -5 6 -7 19 -6 29 2 9 -1 17 -5 17 -5 0 -10 -10 -12 -22z"/>
<path d="M2270 221 c-8 -6 -18 -7 -24 -4 -5 4 -7 -1 -3 -11 6 -14 3 -17 -8
-12 -9 3 -13 2 -10 -4 3 -6 2 -10 -3 -10 -5 0 -12 -11 -14 -25 -4 -17 -1 -25
8 -25 13 0 18 12 15 33 -2 12 35 43 47 39 7 -2 12 3 12 12 0 19 0 19 -20 7z"/>
<path d="M2312 219 c2 -6 8 -10 13 -10 5 0 11 4 13 10 2 6 -4 11 -13 11 -9 0
-15 -5 -13 -11z"/>
<path d="M4231 200 c-1 -15 5 -32 12 -39 10 -11 9 -13 -4 -8 -9 3 -16 0 -16
-8 0 -20 21 -7 47 28 22 30 22 31 2 13 -17 -15 -22 -16 -26 -5 -13 40 -14 42
-15 19z"/>
<path d="M2341 196 c-10 -12 -8 -13 8 -9 12 3 21 9 21 14 0 14 -16 11 -29 -5z"/>
<path d="M4153 203 c-7 -2 -13 -11 -13 -19 0 -9 -3 -13 -7 -11 -5 3 -17 -4
-27 -14 -24 -24 -8 -25 19 -1 21 17 51 53 44 51 -2 0 -10 -3 -16 -6z"/>
<path d="M210 190 c0 -5 7 -10 15 -10 8 0 15 5 15 10 0 6 -7 10 -15 10 -8 0
-15 -4 -15 -10z"/>
<path d="M4403 193 c9 -2 25 -2 35 0 9 3 1 5 -18 5 -19 0 -27 -2 -17 -5z"/>
<path d="M450 180 c0 -7 192 -10 556 -10 367 0 553 3 549 10 -4 6 -200 10
-556 10 -359 0 -549 -3 -549 -10z"/>
<path d="M2980 180 c0 -6 122 -10 345 -10 223 0 345 4 345 10 0 6 -122 10
-345 10 -223 0 -345 -4 -345 -10z"/>
<path d="M3700 180 c0 -6 63 -10 170 -10 107 0 170 4 170 10 0 6 -63 10 -170
10 -107 0 -170 -4 -170 -10z"/>
<path d="M242 173 c-9 -4 -10 -9 -2 -18 8 -10 2 -18 -24 -33 -24 -15 -36 -17
-40 -9 -2 7 -5 4 -5 -5 -1 -22 2 -22 42 -2 31 16 49 37 53 62 2 13 -3 14 -24
5z"/>
<path d="M2266 164 c-9 -8 -16 -22 -16 -29 0 -23 31 -46 59 -43 31 3 54 -9 45
-24 -4 -6 1 -6 14 1 22 12 32 32 32 66 0 24 -31 51 -44 38 -13 -13 -5 -25 14
-20 13 3 20 0 20 -9 0 -8 -3 -13 -7 -13 -19 3 -27 -2 -15 -9 7 -5 10 -16 6
-26 -9 -22 -35 -2 -28 22 5 15 4 15 -6 0 -15 -24 -57 -23 -69 1 -12 22 4 47
34 54 19 4 18 5 -2 6 -12 0 -29 -6 -37 -15z"/>
<path d="M1643 143 c-80 -2 -133 -8 -133 -14 0 -15 272 -7 278 9 2 6 0 11 -5
10 -4 -1 -68 -4 -140 -5z"/>
<path d="M2712 139 c4 -11 34 -15 136 -17 86 -2 132 1 132 8 0 6 -44 10 -119
10 -66 0 -127 3 -137 7 -12 4 -15 2 -12 -8z"/>
<path d="M461 68 c0 -51 3 -67 9 -52 4 12 7 40 5 63 l-3 41 216 1 c120 0 333
0 475 0 163 -1 257 3 257 9 0 6 -170 10 -480 10 l-480 0 1 -72z"/>
<path d="M3160 132 c0 -4 195 -7 433 -7 l432 0 6 -65 6 -65 1 73 2 72 -440 0
c-242 0 -440 -4 -440 -8z"/>
<path d="M4073 90 c0 -30 2 -43 4 -28 2 16 2 40 0 55 -2 16 -4 3 -4 -27z"/>
<path d="M0 120 c0 -6 12 -10 28 -10 36 -1 71 -31 88 -78 l15 -37 -6 40 c-3
22 -6 47 -7 56 -2 10 -8 15 -17 11 -10 -4 -13 -1 -9 9 4 11 -6 14 -43 16 -27
1 -49 -2 -49 -7z"/>
<path d="M4239 118 c0 -7 0 -34 1 -60 1 -37 -2 -47 -17 -51 -14 -4 -13 -5 5
-6 21 -1 22 3 22 64 0 36 -2 65 -5 65 -3 0 -5 -6 -6 -12z"/>
<path d="M4417 100 c-14 -11 -30 -20 -35 -20 -5 0 -13 -16 -16 -34 -6 -33 -9
-35 -54 -39 l-47 -3 53 -2 c42 -2 52 1 52 14 0 26 65 84 93 84 14 0 29 5 32
10 11 19 -52 10 -78 -10z"/>
<path d="M257 103 c-10 -9 -9 -43 1 -43 4 0 8 11 8 25 0 28 0 28 -9 18z"/>
<path d="M20 71 c0 -5 -3 -17 -7 -27 -6 -16 -4 -16 19 2 17 13 22 21 14 26
-15 10 -26 10 -26 -1z"/>
<path d="M2312 64 c-10 -12 -10 -14 2 -14 17 0 30 16 19 23 -5 3 -14 -1 -21
-9z"/>
<path d="M4485 60 c-4 -6 -16 -8 -28 -4 -19 6 -20 5 -8 -10 18 -21 28 -20 41
4 11 20 6 29 -5 10z"/>
<path d="M49 18 c-12 -23 -12 -23 10 -4 23 21 26 26 11 26 -5 0 -15 -10 -21
-22z"/>
<path d="M4417 20 c10 -11 22 -20 27 -20 5 0 1 9 -9 20 -24 26 -40 26 -18 0z"/>
<path d="M80 15 c-10 -12 -10 -15 4 -15 9 0 16 7 16 15 0 8 -2 15 -4 15 -2 0
-9 -7 -16 -15z"/>
<path d="M3240 20 c0 -6 -67 -11 -167 -13 l-168 -3 168 -2 c139 -2 171 1 183
13 14 13 14 15 0 15 -9 0 -16 -4 -16 -10z"/>
<path d="M178 3 c17 -2 47 -2 65 0 17 2 3 4 -33 4 -36 0 -50 -2 -32 -4z"/>
<path d="M603 3 c9 -2 25 -2 35 0 9 3 1 5 -18 5 -19 0 -27 -2 -17 -5z"/>
<path d="M923 3 c147 -2 387 -2 535 0 147 1 26 2 -268 2 -294 0 -415 -1 -267
-2z"/>
<path d="M1833 3 c9 -2 25 -2 35 0 9 3 1 5 -18 5 -19 0 -27 -2 -17 -5z"/>
<path d="M2628 3 c50 -2 134 -2 185 0 50 1 9 3 -93 3 -102 0 -143 -2 -92 -3z"/>
<path d="M3343 3 c43 -2 110 -2 150 0 40 1 5 3 -78 3 -82 0 -115 -2 -72 -3z"/>
<path d="M3593 3 c15 -2 37 -2 50 0 12 2 0 4 -28 4 -27 0 -38 -2 -22 -4z"/>
<path d="M3788 3 c12 -2 30 -2 40 0 9 3 -1 5 -23 4 -22 0 -30 -2 -17 -4z"/>
<path d="M3863 3 c9 -2 25 -2 35 0 9 3 1 5 -18 5 -19 0 -27 -2 -17 -5z"/>
</g>
</svg>
